<svg xmlns="http://www.w3.org/2000/svg" width="24" height="24" id="twitter"><path d="M7.9 21.3c-2.5 0-5-.7-7.2-2.1-.2-.1-.3-.4-.2-.6.1-.2.3-.4.5-.3 1.8.2 3.7-.2 5.3-1-1.5-.5-2.8-1.7-3.3-3.3-.1-.2 0-.4.1-.5.1-.1.2-.1.3-.2-1.2-.9-2-2.4-2-3.9 0-.2.1-.4.2-.5.2 0 .4 0 .5.1h.2c-.6-.8-.9-1.7-.9-2.8 0-.9.2-1.7.7-2.5.1-.1.2-.2.4-.2s.3.1.4.2C5 6.2 8 7.8 11.2 8.1v-.5c0-2.7 2.2-4.9 5-4.9 1.3 0 2.5.5 3.5 1.4.9-.2 1.7-.5 2.5-1 .2-.1.4-.1.6 0s.2.3.2.5c-.2.5-.4 1-.7 1.4.2-.1.4-.2.7-.3.2-.1.4 0 .6.1.1.2.2.4 0 .6-.6.9-1.3 1.6-2.2 2.3V8c-.1 6.6-5.1 13.3-13.5 13.3zm-4.8-2c1.5.6 3.2 1 4.9 1 7.7 0 12.3-6.2 12.3-12.1v-.6c0-.2.1-.3.2-.4.4-.3.7-.6 1-.9-.3.1-.7.1-1 .2-.2 0-.5-.1-.5-.3-.1-.2 0-.5.2-.6.4-.2.8-.6 1.1-.9-.5.2-1.1.4-1.6.5-.2 0-.3 0-.5-.1-.8-.8-1.8-1.2-2.9-1.2-2.2 0-4 1.8-4 3.9 0 .3 0 .6.1.9 0 .2 0 .3-.1.4-.1.1-.3.2-.4.2C8.3 9 5 7.4 2.7 4.9c-.2.4-.3.9-.3 1.3 0 1.3.7 2.5 1.8 3.3.2.1.3.4.2.6s-.3.4-.5.3c-.5 0-1-.1-1.5-.3.4 1.6 1.6 2.9 3.2 3.2.2 0 .4.2.4.5 0 .2-.1.4-.4.5-.4.1-.9.2-1.4.2.7 1.2 2 2 3.4 2 .2 0 .4.1.5.3.1.2 0 .4-.2.6-1.4 1.1-3 1.7-4.8 1.9z"></path></svg>